<svg width="48" height="48" viewBox="0 0 48 48" fill="none" xmlns="http://www.w3.org/2000/svg">
<rect width="48" height="48" rx="24" fill="#F8F4F1"/>
<path d="M24 24.625C25.3807 24.625 26.5 23.5057 26.5 22.125C26.5 20.7443 25.3807 19.625 24 19.625C22.6193 19.625 21.5 20.7443 21.5 22.125C21.5 23.5057 22.6193 24.625 24 24.625Z" stroke="#FD713F" stroke-width="1.5" stroke-linecap="round" stroke-linejoin="round"/>
<path d="M30.25 22.125C30.25 27.75 24 32.125 24 32.125C24 32.125 17.75 27.75 17.75 22.125C17.75 20.4674 18.4085 18.8777 19.5806 17.7056C20.7527 16.5335 22.3424 15.875 24 15.875C25.6576 15.875 27.2473 16.5335 28.4194 17.7056C29.5915 18.8777 30.25 20.4674 30.25 22.125Z" stroke="#FD713F" stroke-width="1.5" stroke-linecap="round" stroke-linejoin="round"/>
</svg>
