<svg width="14" height="14" viewBox="0 0 14 14" fill="none" xmlns="http://www.w3.org/2000/svg">
<path d="M11.8125 3.5H2.1875C1.94588 3.5 1.75 3.69588 1.75 3.9375V10.9375C1.75 11.1791 1.94588 11.375 2.1875 11.375H11.8125C12.0541 11.375 12.25 11.1791 12.25 10.9375V3.9375C12.25 3.69588 12.0541 3.5 11.8125 3.5Z" stroke="#777777" stroke-width="1.2" stroke-linecap="round" stroke-linejoin="round"/>
<path d="M9.1875 3.5V2.625C9.1875 2.39294 9.09531 2.17038 8.93122 2.00628C8.76712 1.84219 8.54456 1.75 8.3125 1.75H5.6875C5.45544 1.75 5.23288 1.84219 5.06878 2.00628C4.90469 2.17038 4.8125 2.39294 4.8125 2.625V3.5" stroke="#777777" stroke-width="1.2" stroke-linecap="round" stroke-linejoin="round"/>
<path d="M12.25 6.46997C10.6545 7.3931 8.84328 7.8778 7 7.87489C5.15679 7.87783 3.34557 7.39333 1.75 6.47052" stroke="#777777" stroke-width="1.2" stroke-linecap="round" stroke-linejoin="round"/>
<path d="M6.125 6.125H7.875" stroke="#777777" stroke-width="1.2" stroke-linecap="round" stroke-linejoin="round"/>
</svg>
