<svg width="16" height="16" viewBox="0 0 16 16" fill="none" xmlns="http://www.w3.org/2000/svg">
<path d="M6 10L5.5 8" stroke="#272727" stroke-width="1.2" stroke-linecap="round" stroke-linejoin="round"/>
<path d="M10 10L10.5 8" stroke="#272727" stroke-width="1.2" stroke-linecap="round" stroke-linejoin="round"/>
<path d="M8 10V8" stroke="#272727" stroke-width="1.2" stroke-linecap="round" stroke-linejoin="round"/>
<path d="M10.8535 4.07C11.2648 3.97954 11.6906 3.97672 12.1032 4.06172C12.5157 4.14672 12.9057 4.31764 13.2478 4.56334C13.5899 4.80904 13.8764 5.12403 14.0887 5.4878C14.301 5.85157 14.4344 6.25596 14.48 6.67467C14.5257 7.09338 14.4827 7.51702 14.3538 7.91801C14.2249 8.319 14.0131 8.68835 13.732 9.00203C13.4509 9.31572 13.1069 9.5667 12.7224 9.73864C12.3379 9.91058 11.9215 9.99963 11.5003 10H4.50033C4.07914 9.99963 3.66274 9.91058 3.27825 9.73864C2.89375 9.5667 2.54976 9.31572 2.26868 9.00203C1.9876 8.68835 1.77572 8.319 1.64684 7.91801C1.51795 7.51702 1.47495 7.09338 1.52062 6.67467C1.5663 6.25596 1.69963 5.85157 1.91194 5.4878C2.12425 5.12403 2.41078 4.80904 2.75288 4.56334C3.09498 4.31764 3.48499 4.14672 3.89751 4.06172C4.31004 3.97672 4.73584 3.97954 5.14721 4.07" stroke="#272727" stroke-width="1.2" stroke-linecap="round" stroke-linejoin="round"/>
<path d="M5 5C5 4.20435 5.31607 3.44129 5.87868 2.87868C6.44129 2.31607 7.20435 2 8 2C8.79565 2 9.55871 2.31607 10.1213 2.87868C10.6839 3.44129 11 4.20435 11 5" stroke="#272727" stroke-width="1.2" stroke-linecap="round" stroke-linejoin="round"/>
<path d="M12.5 9.82935V13C12.5 13.1326 12.4473 13.2598 12.3536 13.3535C12.2598 13.4473 12.1326 13.5 12 13.5H4C3.86739 13.5 3.74021 13.4473 3.64645 13.3535C3.55268 13.2598 3.5 13.1326 3.5 13V9.82935" stroke="#272727" stroke-width="1.2" stroke-linecap="round" stroke-linejoin="round"/>
</svg>
