<svg width="20" height="20" viewBox="0 0 20 20" fill="none" xmlns="http://www.w3.org/2000/svg">
<path d="M7.5 12.5L6.875 10" stroke="#2F8328" stroke-width="1.5" stroke-linecap="round" stroke-linejoin="round"/>
<path d="M12.5 12.5L13.125 10" stroke="#2F8328" stroke-width="1.5" stroke-linecap="round" stroke-linejoin="round"/>
<path d="M10 12.5V10" stroke="#2F8328" stroke-width="1.5" stroke-linecap="round" stroke-linejoin="round"/>
<path d="M13.5663 5.0875C14.0805 4.97443 14.6128 4.97091 15.1285 5.07715C15.6441 5.1834 16.1316 5.39704 16.5592 5.70417C16.9869 6.0113 17.345 6.40503 17.6104 6.85975C17.8758 7.31446 18.0425 7.81996 18.0996 8.34334C18.1567 8.86673 18.1029 9.39627 17.9418 9.89751C17.7807 10.3987 17.5158 10.8604 17.1645 11.2525C16.8131 11.6446 16.3832 11.9584 15.9025 12.1733C15.4219 12.3882 14.9014 12.4995 14.3749 12.5H5.62493C5.09844 12.4995 4.57794 12.3882 4.09732 12.1733C3.6167 11.9584 3.18672 11.6446 2.83536 11.2525C2.48401 10.8604 2.21917 10.3987 2.05806 9.89751C1.89695 9.39627 1.8432 8.86673 1.90029 8.34334C1.95738 7.81996 2.12405 7.31446 2.38943 6.85975C2.65482 6.40503 3.01298 6.0113 3.44061 5.70417C3.86824 5.39704 4.35574 5.1834 4.8714 5.07715C5.38706 4.97091 5.91931 4.97443 6.43352 5.0875" stroke="#2F8328" stroke-width="1.5" stroke-linecap="round" stroke-linejoin="round"/>
<path d="M6.25 6.25C6.25 5.25544 6.64509 4.30161 7.34835 3.59835C8.05161 2.89509 9.00544 2.5 10 2.5C10.9946 2.5 11.9484 2.89509 12.6517 3.59835C13.3549 4.30161 13.75 5.25544 13.75 6.25" stroke="#2F8328" stroke-width="1.5" stroke-linecap="round" stroke-linejoin="round"/>
<path d="M15.625 12.2866V16.2499C15.625 16.4157 15.5592 16.5746 15.4419 16.6918C15.3247 16.8091 15.1658 16.8749 15 16.8749H5C4.83424 16.8749 4.67527 16.8091 4.55806 16.6918C4.44085 16.5746 4.375 16.4157 4.375 16.2499V12.2866" stroke="#2F8328" stroke-width="1.5" stroke-linecap="round" stroke-linejoin="round"/>
</svg>
