<svg width="24" height="24" viewBox="0 0 24 24" fill="none" xmlns="http://www.w3.org/2000/svg">
    <path
        d="M23.5 14C23.5 12.7922 22.781 11.7515 21.75 11.2762V11C21.75 5.62375 17.3762 1.25 12 1.25C6.62375 1.25 2.25 5.62375 2.25 11V11.2762C1.219 11.7515 0.5 12.7925 0.5 14C0.5 15.6543 1.84575 17 3.5 17H4.5C4.63261 17 4.75979 16.9473 4.85355 16.8536C4.94732 16.7598 5 16.6326 5 16.5V11.5C5 11.3674 4.94732 11.2402 4.85355 11.1464C4.75979 11.0527 4.63261 11 4.5 11H3.5C3.4155 11 3.3325 11.0057 3.25 11.0125V11C3.25 6.17525 7.17525 2.25 12 2.25C16.8247 2.25 20.75 6.17525 20.75 11V11.0125C20.6675 11.0057 20.5845 11 20.5 11H19.5C19.3674 11 19.2402 11.0527 19.1464 11.1464C19.0527 11.2402 19 11.3674 19 11.5V16.5C19 16.6326 19.0527 16.7598 19.1464 16.8536C19.2402 16.9473 19.3674 17 19.5 17H20.5C20.5845 17 20.6675 16.9942 20.75 16.9875V17.75C20.75 19.4042 19.4042 20.75 17.75 20.75H14C14 20.1985 13.5515 19.75 13 19.75H10.5C9.9485 19.75 9.5 20.1985 9.5 20.75V21.75C9.5 22.3015 9.9485 22.75 10.5 22.75H13C13.5515 22.75 14 22.3015 14 21.75H17.75C19.9555 21.75 21.75 19.9555 21.75 17.75V16.7237C22.781 16.2485 23.5 15.2078 23.5 14ZM4 12V16H3.5C2.39725 16 1.5 15.1027 1.5 14C1.5 12.8973 2.39725 12 3.5 12H4ZM10.5 21.75V20.75H13L13.0002 21.2465L13 21.25L13.0002 21.2537L13.0007 21.75H10.5ZM20.5 16H20V12H20.5C21.6028 12 22.5 12.8973 22.5 14C22.5 15.1027 21.6028 16 20.5 16ZM12 17.25C15.0325 17.25 17.5 14.7825 17.5 11.75C17.5 8.7175 15.0325 6.25 12 6.25C8.9675 6.25 6.5 8.7175 6.5 11.75C6.5 12.7312 6.763 13.69 7.2625 14.5365L6.759 17.1558C6.74187 17.245 6.7494 17.3373 6.78078 17.4226C6.81215 17.5079 6.86618 17.583 6.93706 17.6399C7.00794 17.6968 7.09298 17.7333 7.18305 17.7455C7.27312 17.7576 7.36481 17.745 7.44825 17.709L9.69325 16.74C10.4154 17.0773 11.203 17.2515 12 17.25ZM7.9195 16.4165L8.281 14.5345C8.30516 14.4087 8.28011 14.2784 8.211 14.1705C7.74703 13.4484 7.50025 12.6083 7.5 11.75C7.5 9.26875 9.51875 7.25 12 7.25C14.4812 7.25 16.5 9.26875 16.5 11.75C16.5 14.2312 14.4812 16.25 12 16.25C11.277 16.25 10.5827 16.0803 9.93625 15.7458C9.8705 15.7116 9.79797 15.6926 9.72394 15.69C9.64991 15.6874 9.57623 15.7013 9.50825 15.7308L7.9195 16.4165ZM12 13.25H9.5C9.36739 13.25 9.24021 13.1973 9.14645 13.1036C9.05268 13.0098 9 12.8826 9 12.75C9 12.6174 9.05268 12.4902 9.14645 12.3964C9.24021 12.3027 9.36739 12.25 9.5 12.25H12C12.1326 12.25 12.2598 12.3027 12.3536 12.3964C12.4473 12.4902 12.5 12.6174 12.5 12.75C12.5 12.8826 12.4473 13.0098 12.3536 13.1036C12.2598 13.1973 12.1326 13.25 12 13.25ZM9 10.75C9 10.6174 9.05268 10.4902 9.14645 10.3964C9.24021 10.3027 9.36739 10.25 9.5 10.25H14.5C14.6326 10.25 14.7598 10.3027 14.8536 10.3964C14.9473 10.4902 15 10.6174 15 10.75C15 10.8826 14.9473 11.0098 14.8536 11.1036C14.7598 11.1973 14.6326 11.25 14.5 11.25H9.5C9.36739 11.25 9.24021 11.1973 9.14645 11.1036C9.05268 11.0098 9 10.8826 9 10.75Z"
        fill="black" />
</svg>
