<svg width="16" height="16" viewBox="0 0 16 16" fill="none" xmlns="http://www.w3.org/2000/svg">
<path d="M8 10C9.38071 10 10.5 8.88071 10.5 7.5C10.5 6.11929 9.38071 5 8 5C6.61929 5 5.5 6.11929 5.5 7.5C5.5 8.88071 6.61929 10 8 10Z" stroke="#272727" stroke-width="1.2" stroke-linecap="round" stroke-linejoin="round"/>
<path d="M13 2.5H3C2.72386 2.5 2.5 2.72386 2.5 3V13C2.5 13.2761 2.72386 13.5 3 13.5H13C13.2761 13.5 13.5 13.2761 13.5 13V3C13.5 2.72386 13.2761 2.5 13 2.5Z" stroke="#272727" stroke-width="1.2" stroke-linecap="round" stroke-linejoin="round"/>
<path d="M3.61133 13.5C3.83688 12.5045 4.39412 11.6154 5.1916 10.9784C5.98908 10.3414 6.97942 9.99438 8.00008 9.99438C9.02074 9.99438 10.0111 10.3414 10.8086 10.9784C11.606 11.6154 12.1633 12.5045 12.3888 13.5" stroke="#272727" stroke-width="1.2" stroke-linecap="round" stroke-linejoin="round"/>
</svg>
