<svg width="88" height="88" viewBox="0 0 88 88" fill="none" xmlns="http://www.w3.org/2000/svg">
<circle cx="43.5" cy="44" r="30" fill="url(#paint0_linear_17800_20845)"/>
<g clip-path="url(#clip0_17800_20845)">
<path fill-rule="evenodd" clip-rule="evenodd" d="M40.09 32.6666C40.0901 32.49 40.1602 32.3207 40.285 32.1958C40.4098 32.071 40.5791 32.0007 40.7557 32.0006L47.4115 32.0002C47.5881 32.0007 47.7573 32.0711 47.8821 32.196C48.0069 32.321 48.077 32.4904 48.0771 32.6669V34.3131H40.09V32.6666ZM51.0335 55.0467C51.0165 55.3063 50.901 55.5495 50.7105 55.7267C50.5201 55.9038 50.2691 56.0015 50.009 55.9997H38.0816C37.8216 55.999 37.5714 55.8999 37.3814 55.7224C37.1914 55.5449 37.0756 55.3021 37.0572 55.0427L36.0366 40.1122H52.1228L51.0338 55.0465L51.0335 55.0467ZM53.6851 38.7599H34.4824V37.213C34.4827 36.8028 34.6458 36.4094 34.9359 36.1193C35.2259 35.8291 35.6193 35.666 36.0295 35.6656L52.1378 35.6651C52.5481 35.6657 52.9413 35.829 53.2313 36.1192C53.5213 36.4093 53.6843 36.8027 53.6847 37.2129V38.7598L53.6851 38.7599ZM40.9919 52.4404C40.9919 52.5292 41.0093 52.6171 41.0433 52.6991C41.0773 52.7811 41.1271 52.8557 41.1899 52.9184C41.2526 52.9812 41.3272 53.031 41.4092 53.065C41.4912 53.099 41.5791 53.1164 41.6679 53.1164C41.7567 53.1164 41.8446 53.099 41.9266 53.065C42.0086 53.031 42.0831 52.9812 42.1459 52.9184C42.2087 52.8557 42.2585 52.7811 42.2925 52.6991C42.3264 52.6171 42.3439 52.5292 42.3439 52.4404V42.9601C42.3425 42.7818 42.2707 42.6113 42.1441 42.4857C42.0176 42.3601 41.8465 42.2896 41.6682 42.2895C41.4899 42.2895 41.3188 42.3599 41.1922 42.4854C41.0656 42.6109 40.9936 42.7813 40.9921 42.9596V52.4404H40.9919ZM45.8153 52.4404C45.8153 52.6197 45.8865 52.7917 46.0133 52.9185C46.1401 53.0453 46.3121 53.1165 46.4914 53.1165C46.6707 53.1165 46.8427 53.0453 46.9695 52.9185C47.0963 52.7917 47.1675 52.6197 47.1675 52.4404V42.9601C47.1661 42.7818 47.0943 42.6112 46.9677 42.4856C46.8412 42.36 46.6701 42.2895 46.4918 42.2894C46.3135 42.2894 46.1423 42.3598 46.0157 42.4853C45.889 42.6108 45.8171 42.7813 45.8155 42.9596L45.8153 52.4404Z" fill="white"/>
</g>
<defs>
<linearGradient id="paint0_linear_17800_20845" x1="42.8635" y1="117.846" x2="94.803" y2="42.0162" gradientUnits="userSpaceOnUse">
<stop offset="0.10742" stop-color="#8E1D1D"/>
<stop offset="0.858497" stop-color="#FF3C3C"/>
</linearGradient>
<clipPath id="clip0_17800_20845">
<rect width="24" height="24" fill="white" transform="translate(32.084 32)"/>
</clipPath>
</defs>
</svg>
