<svg width="16" height="16" viewBox="0 0 16 16" fill="none" xmlns="http://www.w3.org/2000/svg">
<path d="M5.75 3.1875C6.06066 3.1875 6.3125 3.43934 6.3125 3.75C6.3125 4.06066 6.06066 4.3125 5.75 4.3125C5.43934 4.3125 5.1875 4.06066 5.1875 3.75C5.1875 3.43934 5.43934 3.1875 5.75 3.1875Z" fill="#272727" stroke="#272727" stroke-width="0.125"/>
<path d="M10.25 4.375C10.5952 4.375 10.875 4.09518 10.875 3.75C10.875 3.40482 10.5952 3.125 10.25 3.125C9.90482 3.125 9.625 3.40482 9.625 3.75C9.625 4.09518 9.90482 4.375 10.25 4.375Z" fill="#272727"/>
<path d="M5.75 8.625C6.09518 8.625 6.375 8.34518 6.375 8C6.375 7.65482 6.09518 7.375 5.75 7.375C5.40482 7.375 5.125 7.65482 5.125 8C5.125 8.34518 5.40482 8.625 5.75 8.625Z" fill="#272727"/>
<path d="M10.25 8.625C10.5952 8.625 10.875 8.34518 10.875 8C10.875 7.65482 10.5952 7.375 10.25 7.375C9.90482 7.375 9.625 7.65482 9.625 8C9.625 8.34518 9.90482 8.625 10.25 8.625Z" fill="#272727"/>
<path d="M5.75 12.875C6.09518 12.875 6.375 12.5952 6.375 12.25C6.375 11.9048 6.09518 11.625 5.75 11.625C5.40482 11.625 5.125 11.9048 5.125 12.25C5.125 12.5952 5.40482 12.875 5.75 12.875Z" fill="#272727"/>
<path d="M10.25 12.875C10.5952 12.875 10.875 12.5952 10.875 12.25C10.875 11.9048 10.5952 11.625 10.25 11.625C9.90482 11.625 9.625 11.9048 9.625 12.25C9.625 12.5952 9.90482 12.875 10.25 12.875Z" fill="#272727"/>
</svg>
