<svg width="59" height="59" viewBox="0 0 59 59" fill="none" xmlns="http://www.w3.org/2000/svg">
<path d="M29.25 0C23.4649 0 17.8097 1.71548 12.9996 4.92951C8.18945 8.14355 4.4404 12.7118 2.22654 18.0565C0.0126736 23.4012 -0.566574 29.2824 0.562044 34.9564C1.69066 40.6303 4.47645 45.8422 8.56714 49.9329C12.6578 54.0236 17.8697 56.8094 23.5436 57.938C29.2176 59.0666 35.0988 58.4873 40.4435 56.2735C45.7882 54.0596 50.3565 50.3106 53.5705 45.5004C56.7845 40.6903 58.5 35.0351 58.5 29.25C58.4918 21.4949 55.4075 14.0598 49.9238 8.57617C44.4402 3.09251 37.0051 0.00818949 29.25 0ZM42.0919 24.0919L26.3419 39.8419C26.1329 40.0511 25.8848 40.217 25.6116 40.3303C25.3385 40.4435 25.0457 40.5018 24.75 40.5018C24.4543 40.5018 24.1615 40.4435 23.8884 40.3303C23.6153 40.217 23.3671 40.0511 23.1581 39.8419L16.4081 33.0919C15.9859 32.6697 15.7488 32.0971 15.7488 31.5C15.7488 30.9029 15.9859 30.3303 16.4081 29.9081C16.8303 29.4859 17.4029 29.2487 18 29.2487C18.5971 29.2487 19.1697 29.4859 19.5919 29.9081L24.75 35.0691L38.9081 20.9081C39.1172 20.6991 39.3654 20.5333 39.6385 20.4201C39.9116 20.307 40.2044 20.2487 40.5 20.2487C40.7957 20.2487 41.0884 20.307 41.3615 20.4201C41.6347 20.5333 41.8828 20.6991 42.0919 20.9081C42.3009 21.1172 42.4668 21.3653 42.5799 21.6385C42.693 21.9116 42.7513 22.2044 42.7513 22.5C42.7513 22.7956 42.693 23.0884 42.5799 23.3615C42.4668 23.6347 42.3009 23.8828 42.0919 24.0919Z" fill="url(#paint0_linear_18830_561)"/>
<defs>
<linearGradient id="paint0_linear_18830_561" x1="28.6295" y1="101.25" x2="79.2705" y2="27.3158" gradientUnits="userSpaceOnUse">
<stop offset="0.10742" stop-color="#00580F"/>
<stop offset="0.858497" stop-color="#00AB1D"/>
</linearGradient>
</defs>
</svg>
