<svg width="36" height="26" viewBox="0 0 36 26" fill="none" xmlns="http://www.w3.org/2000/svg">
<path fill-rule="evenodd" clip-rule="evenodd" d="M17.0019 15.4903V12.3264H18.6056C19.2628 12.3264 19.8175 12.1022 20.2697 11.66L20.3782 11.5478C21.2042 10.6323 21.1499 9.20605 20.2697 8.35902C19.8295 7.91059 19.2266 7.66769 18.6056 7.68014H16.0312V15.4903H17.0019ZM17.002 11.3672V8.63922H18.6301C18.9799 8.63922 19.3115 8.77624 19.5588 9.02537C20.0834 9.54854 20.0954 10.4205 19.5889 10.9623C19.3417 11.2302 18.9919 11.3796 18.6301 11.3672H17.002ZM24.906 10.5638C24.49 10.1714 23.9233 9.97209 23.2058 9.97209C22.2834 9.97209 21.59 10.3209 21.1318 11.0122L21.988 11.5665C22.3015 11.0932 22.7295 10.8565 23.2721 10.8565C23.6158 10.8565 23.9474 10.9873 24.2066 11.224C24.4599 11.4482 24.6046 11.772 24.6046 12.1146V12.345C24.2308 12.1333 23.7605 12.0212 23.1817 12.0212C22.5065 12.0212 21.9638 12.1831 21.5599 12.5132C21.156 12.8433 20.951 13.2793 20.951 13.8336C20.9389 14.3381 21.1499 14.8176 21.5237 15.1415C21.9036 15.4903 22.3859 15.6647 22.9526 15.6647C23.6218 15.6647 24.1524 15.3595 24.5563 14.7491H24.5985V15.4903H25.527V12.1956C25.527 11.5042 25.322 10.9561 24.906 10.5638ZM22.2715 14.5062C22.0725 14.3568 21.9519 14.1139 21.9519 13.8523C21.9519 13.5595 22.0846 13.3167 22.3438 13.1236C22.6092 12.9305 22.9408 12.8309 23.3328 12.8309C23.8755 12.8246 24.2976 12.9492 24.5991 13.1983C24.5991 13.6218 24.4363 13.9893 24.1167 14.3007C23.8272 14.5997 23.4353 14.7678 23.0252 14.7678C22.7539 14.774 22.4886 14.6806 22.2715 14.5062ZM27.6131 17.8383L30.8567 10.1465H29.8016L28.3004 13.983H28.2823L26.7449 10.1465H25.6898L27.8181 15.1477L26.6122 17.8383H27.6131Z" fill="#3C4043"/>
<path d="M13.6514 11.6412C13.6514 11.3361 13.6273 11.0309 13.5791 10.7319H9.48535V12.4571H11.8306C11.7342 13.0115 11.4207 13.5097 10.9625 13.8211V14.9422H12.3612C13.1811 14.1637 13.6514 13.0115 13.6514 11.6412Z" fill="#4285F4"/>
<path d="M9.48507 16.0259C10.6547 16.0259 11.6435 15.6273 12.3609 14.9422L10.9622 13.8212C10.5703 14.0952 10.0699 14.2509 9.48507 14.2509C8.35161 14.2509 7.39299 13.4599 7.04934 12.4011H5.6084V13.5596C6.34394 15.073 7.84517 16.0259 9.48507 16.0259Z" fill="#34A853"/>
<path d="M7.04956 12.4012C6.86866 11.8469 6.86866 11.2428 7.04956 10.6822V9.53003H5.60839C4.98731 10.7944 4.98731 12.2891 5.60839 13.5534L7.04956 12.4012Z" fill="#FBBC04"/>
<path d="M9.48507 8.83243C10.1061 8.81998 10.7029 9.06288 11.1491 9.50508L12.3911 8.22207C11.6013 7.46223 10.5643 7.04494 9.48507 7.0574C7.84517 7.0574 6.34394 8.01654 5.6084 9.52999L7.04934 10.6884C7.39299 9.62341 8.35161 8.83243 9.48507 8.83243Z" fill="#EA4335"/>
</svg>
