<svg width="58" height="58" viewBox="0 0 58 58" fill="none" xmlns="http://www.w3.org/2000/svg">
<path d="M29 0C23.2644 0 17.6575 1.70082 12.8885 4.88738C8.11945 8.07394 4.40245 12.6031 2.20751 17.9022C0.0125652 23.2012 -0.561731 29.0322 0.55724 34.6576C1.67621 40.2831 4.43819 45.4504 8.49391 49.5061C12.5496 53.5618 17.7169 56.3238 23.3424 57.4428C28.9678 58.5617 34.7988 57.9874 40.0978 55.7925C45.3969 53.5976 49.9261 49.8806 53.1126 45.1115C56.2992 40.3425 58 34.7357 58 29C57.9919 21.3112 54.9339 13.9397 49.4971 8.50287C44.0603 3.06607 36.6888 0.00811949 29 0ZM26.7692 15.6154C26.7692 15.0237 27.0043 14.4563 27.4226 14.038C27.841 13.6196 28.4084 13.3846 29 13.3846C29.5916 13.3846 30.159 13.6196 30.5774 14.038C30.9958 14.4563 31.2308 15.0237 31.2308 15.6154V31.2308C31.2308 31.8224 30.9958 32.3898 30.5774 32.8082C30.159 33.2265 29.5916 33.4615 29 33.4615C28.4084 33.4615 27.841 33.2265 27.4226 32.8082C27.0043 32.3898 26.7692 31.8224 26.7692 31.2308V15.6154ZM29 44.6154C28.3382 44.6154 27.6913 44.4191 27.141 44.0514C26.5907 43.6838 26.1618 43.1612 25.9086 42.5497C25.6553 41.9383 25.589 41.2655 25.7181 40.6164C25.8473 39.9673 26.166 39.3711 26.6339 38.9031C27.1019 38.4352 27.6981 38.1165 28.3472 37.9874C28.9963 37.8583 29.6691 37.9245 30.2805 38.1778C30.892 38.431 31.4146 38.8599 31.7822 39.4102C32.1499 39.9605 32.3462 40.6074 32.3462 41.2692C32.3462 42.1567 31.9936 43.0078 31.3661 43.6353C30.7386 44.2628 29.8875 44.6154 29 44.6154Z" fill="url(#paint0_linear_14563_12058)"/>
<defs>
<linearGradient id="paint0_linear_14563_12058" x1="47.342" y1="6.69243" x2="10.1625" y2="52.2993" gradientUnits="userSpaceOnUse">
<stop stop-color="#FFB52A"/>
<stop offset="1" stop-color="#A06903"/>
</linearGradient>
</defs>
</svg>
