<svg width="28" height="24" viewBox="0 0 28 24" fill="none" xmlns="http://www.w3.org/2000/svg">
<path d="M18.5771 5.0293C22.322 5.0293 25.3584 8.02918 25.3584 11.7295C25.3583 15.4297 22.322 18.4297 18.5771 18.4297C16.8982 18.4296 15.3629 17.8249 14.1787 16.8262C12.9945 17.8248 11.4591 18.4297 9.78027 18.4297C6.03566 18.4295 3.00011 15.4296 3 11.7295C3 8.02932 6.03559 5.02952 9.78027 5.0293C11.459 5.0293 12.9945 5.63337 14.1787 6.63184C15.3628 5.63321 16.8984 5.0294 18.5771 5.0293Z" fill="#ED0006"/>
<path d="M18.5776 5.0293C22.3224 5.0293 25.3578 8.02918 25.3578 11.7295C25.3577 15.4297 22.3224 18.4297 18.5776 18.4297C16.8986 18.4297 15.3634 17.8249 14.1791 16.8262C15.6362 15.5973 16.5609 13.7707 16.561 11.7295C16.561 9.68804 15.6364 7.86073 14.1791 6.63184C15.3633 5.63325 16.8987 5.0293 18.5776 5.0293Z" fill="#F9A000"/>
<path d="M14.1787 6.63C15.6361 7.8589 16.5615 9.68611 16.5615 11.7277C16.5614 13.769 15.636 15.5955 14.1787 16.8243C12.7217 15.5955 11.797 13.7688 11.7969 11.7277C11.7969 9.68634 12.7216 7.8589 14.1787 6.63Z" fill="#FF5E00"/>
</svg>
