<svg width="12" height="15" viewBox="0 0 12 15" fill="none" xmlns="http://www.w3.org/2000/svg">
<path fill-rule="evenodd" clip-rule="evenodd" d="M3.24659 13.7119L3.4803 12.1496L2.95968 12.1368H0.473633L2.20135 0.607766C2.20673 0.572854 2.22413 0.540446 2.24954 0.517391C2.27508 0.494337 2.30763 0.481689 2.34168 0.481689H6.53354C7.92527 0.481689 8.88565 0.786407 9.38699 1.38794C9.62207 1.67013 9.77179 1.96509 9.84426 2.28957C9.92025 2.63012 9.9215 3.03694 9.84739 3.53321L9.84201 3.56931V3.88733L10.0771 4.0275C10.275 4.13803 10.4324 4.2645 10.553 4.40929C10.7541 4.65064 10.8841 4.95733 10.9391 5.32081C10.9959 5.69469 10.9771 6.13971 10.8841 6.64349C10.7768 7.22288 10.6035 7.72758 10.3693 8.14046C10.154 8.52093 9.87956 8.83658 9.55372 9.08109C9.24266 9.31348 8.87313 9.48989 8.45528 9.60279C8.05033 9.71371 7.58867 9.7697 7.08232 9.7697H6.7561C6.5229 9.7697 6.29632 9.8581 6.11844 10.0166C5.94006 10.1784 5.82215 10.3994 5.78597 10.6412L5.76131 10.7819L5.34834 13.5357L5.32969 13.6367C5.32468 13.6687 5.31617 13.6847 5.30365 13.6955C5.29251 13.7053 5.27649 13.7119 5.26084 13.7119H3.24659" fill="#28356A"/>
<path fill-rule="evenodd" clip-rule="evenodd" d="M10.3001 3.60596C10.2877 3.69014 10.2733 3.77617 10.2573 3.86456C9.70452 6.85166 7.8132 7.88359 5.39775 7.88359H4.16786C3.87244 7.88359 3.62346 8.10926 3.57752 8.41596L2.76949 13.8101C2.73957 14.0115 2.88704 14.1929 3.08006 14.1929H5.26143C5.51967 14.1929 5.73911 13.9955 5.77979 13.7274L5.8012 13.6108L6.21191 10.8678L6.23832 10.7173C6.2785 10.4483 6.49844 10.2507 6.75669 10.2507H7.0829C9.1963 10.2507 10.8508 9.34776 11.3344 6.73454C11.5363 5.64294 11.4317 4.73142 10.8972 4.09037C10.7355 3.8971 10.5348 3.73664 10.3001 3.60596" fill="#298FC2"/>
<path fill-rule="evenodd" clip-rule="evenodd" d="M9.72155 3.36335C9.63705 3.3374 9.54993 3.31395 9.46055 3.29274C9.37067 3.27205 9.27867 3.25374 9.18391 3.23767C8.85231 3.18128 8.48891 3.15454 8.09973 3.15454H4.81417C4.73317 3.15454 4.65631 3.17378 4.58759 3.20855C4.436 3.28523 4.32346 3.4362 4.29618 3.62104L3.59718 8.28019L3.57715 8.41602C3.62309 8.10932 3.87207 7.88365 4.16749 7.88365H5.39737C7.81282 7.88365 9.70415 6.8512 10.2569 3.86463C10.2735 3.77623 10.2874 3.6902 10.2997 3.60602C10.1599 3.5279 10.0085 3.4611 9.84535 3.40419C9.80504 3.39009 9.76348 3.37652 9.72155 3.36335" fill="#22284F"/>
<path fill-rule="evenodd" clip-rule="evenodd" d="M4.29647 3.62104C4.32376 3.4362 4.4363 3.28523 4.58789 3.20908C4.65711 3.17417 4.73347 3.15494 4.81446 3.15494H8.10003C8.48921 3.15494 8.8526 3.18181 9.1842 3.2382C9.27896 3.25414 9.37097 3.27258 9.46085 3.29326C9.55023 3.31434 9.63735 3.33792 9.72185 3.36375C9.76378 3.37692 9.80534 3.39062 9.84602 3.40419C10.0091 3.4611 10.1607 3.52842 10.3005 3.60602C10.465 2.50216 10.2992 1.75058 9.73211 1.07C9.10684 0.320658 7.97848 0 6.53454 0H2.34256C2.04764 0 1.79603 0.225673 1.75046 0.532893L0.0044684 12.1805C-0.0299558 12.4109 0.13891 12.6188 0.359726 12.6188H2.94767L4.29647 3.62104" fill="#28356A"/>
</svg>
