<svg width="72" height="72" viewBox="0 0 72 72" fill="none" xmlns="http://www.w3.org/2000/svg">
<path d="M36 6.75C30.2149 6.75 24.5597 8.46548 19.7496 11.6795C14.9394 14.8935 11.1904 19.4618 8.97654 24.8065C6.76267 30.1512 6.18343 36.0324 7.31204 41.7064C8.44066 47.3803 11.2265 52.5922 15.3171 56.6829C19.4078 60.7736 24.6197 63.5593 30.2936 64.688C35.9676 65.8166 41.8488 65.2373 47.1935 63.0235C52.5382 60.8096 57.1065 57.0606 60.3205 52.2504C63.5345 47.4403 65.25 41.7851 65.25 36C65.2418 28.2449 62.1575 20.8098 56.6738 15.3262C51.1902 9.84251 43.7551 6.75819 36 6.75ZM48.8419 30.8419L33.0919 46.5919C32.8829 46.8011 32.6348 46.967 32.3616 47.0803C32.0885 47.1935 31.7957 47.2518 31.5 47.2518C31.2043 47.2518 30.9115 47.1935 30.6384 47.0803C30.3653 46.967 30.1171 46.8011 29.9081 46.5919L23.1581 39.8419C22.7359 39.4197 22.4988 38.8471 22.4988 38.25C22.4988 37.6529 22.7359 37.0803 23.1581 36.6581C23.5803 36.2359 24.1529 35.9987 24.75 35.9987C25.3471 35.9987 25.9197 36.2359 26.3419 36.6581L31.5 41.8191L45.6581 27.6581C45.8672 27.4491 46.1154 27.2833 46.3885 27.1701C46.6616 27.057 46.9544 26.9987 47.25 26.9987C47.5457 26.9987 47.8384 27.057 48.1115 27.1701C48.3847 27.2833 48.6328 27.4491 48.8419 27.6581C49.0509 27.8672 49.2168 28.1153 49.3299 28.3885C49.443 28.6616 49.5013 28.9544 49.5013 29.25C49.5013 29.5456 49.443 29.8384 49.3299 30.1115C49.2168 30.3847 49.0509 30.6328 48.8419 30.8419Z" fill="url(#paint0_linear_14204_10608)"/>
<defs>
<linearGradient id="paint0_linear_14204_10608" x1="35.3795" y1="108" x2="86.0205" y2="34.0658" gradientUnits="userSpaceOnUse">
<stop offset="0.10742" stop-color="#00580F"/>
<stop offset="0.858497" stop-color="#00AB1D"/>
</linearGradient>
</defs>
</svg>
