<svg width="64" height="64" viewBox="0 0 64 64" fill="none" xmlns="http://www.w3.org/2000/svg">
<g filter="url(#filter0_d_15915_938)">
<rect x="12" y="8" width="40" height="40" rx="20" fill="#F8F4F1"/>
<path d="M32 27.25V32.5" stroke="#272727" stroke-width="1.5" stroke-linecap="round" stroke-linejoin="round"/>
<path d="M37.25 24.25L32 18.25L26.75 24.25" stroke="#272727" stroke-width="1.5" stroke-linecap="round" stroke-linejoin="round"/>
<path d="M36.9501 27.25L36.425 32.5" stroke="#272727" stroke-width="1.5" stroke-linecap="round" stroke-linejoin="round"/>
<path d="M27.05 27.25L27.575 32.5" stroke="#272727" stroke-width="1.5" stroke-linecap="round" stroke-linejoin="round"/>
<path d="M22.25 24.25H41.75L40.3372 34.8494C40.3131 35.0295 40.2245 35.1947 40.0877 35.3144C39.951 35.4341 39.7755 35.5 39.5938 35.5H24.4062C24.2245 35.5 24.049 35.4341 23.9123 35.3144C23.7755 35.1947 23.6869 35.0295 23.6628 34.8494L22.25 24.25Z" stroke="#272727" stroke-width="1.5" stroke-linecap="round" stroke-linejoin="round"/>
</g>
<defs>
<filter id="filter0_d_15915_938" x="0" y="0" width="64" height="64" filterUnits="userSpaceOnUse" color-interpolation-filters="sRGB">
<feFlood flood-opacity="0" result="BackgroundImageFix"/>
<feColorMatrix in="SourceAlpha" type="matrix" values="0 0 0 0 0 0 0 0 0 0 0 0 0 0 0 0 0 0 127 0" result="hardAlpha"/>
<feOffset dy="4"/>
<feGaussianBlur stdDeviation="6"/>
<feComposite in2="hardAlpha" operator="out"/>
<feColorMatrix type="matrix" values="0 0 0 0 0.168348 0 0 0 0 0.131282 0 0 0 0 0.103484 0 0 0 0.02 0"/>
<feBlend mode="normal" in2="BackgroundImageFix" result="effect1_dropShadow_15915_938"/>
<feBlend mode="normal" in="SourceGraphic" in2="effect1_dropShadow_15915_938" result="shape"/>
</filter>
</defs>
</svg>
