<svg width="36" height="26" viewBox="0 0 36 26" fill="none" xmlns="http://www.w3.org/2000/svg">
<path d="M20.4038 10.7262C20.4038 12.0976 19.2932 13.0766 17.7412 13.0766H16.2791C16.2629 13.0766 16.2469 13.0794 16.232 13.0847C16.2171 13.0901 16.2036 13.098 16.1922 13.1079C16.1808 13.1178 16.1718 13.1295 16.1657 13.1425C16.1596 13.1554 16.1564 13.1692 16.1565 13.1832V14.9857C16.1565 15.0139 16.1436 15.0409 16.1207 15.0609C16.0977 15.0809 16.0665 15.0921 16.034 15.0923H15.0108C14.9865 15.0922 14.9628 15.0859 14.9425 15.0741C14.9223 15.0624 14.9066 15.0458 14.8972 15.0264C14.891 15.0136 14.8878 15 14.8877 14.9862V8.48185C14.8876 8.46787 14.8907 8.45402 14.8969 8.44109C14.903 8.42816 14.912 8.41641 14.9234 8.4065C14.9348 8.39659 14.9483 8.38873 14.9632 8.38337C14.9781 8.37801 14.9941 8.37525 15.0102 8.37525H17.7478C19.2932 8.3737 20.4038 9.3527 20.4038 10.7262ZM19.1278 10.7262C19.1278 9.93773 18.5068 9.36145 17.6645 9.36145H16.2791C16.2629 9.36145 16.2469 9.36422 16.232 9.36958C16.2171 9.37494 16.2036 9.3828 16.1922 9.39271C16.1808 9.40261 16.1718 9.41437 16.1657 9.4273C16.1596 9.44023 16.1564 9.45408 16.1565 9.46806V11.9781C16.1565 12.0063 16.1694 12.0332 16.1924 12.0531C16.2154 12.073 16.2466 12.0842 16.2791 12.0842H17.6645C18.5068 12.0894 19.1278 11.5126 19.1278 10.7262ZM20.7072 13.8445C20.6966 13.6341 20.7468 13.4248 20.8534 13.2356C20.96 13.0464 21.1195 12.8832 21.3175 12.7609C21.7167 12.5008 22.3407 12.3664 23.2567 12.3386L24.2323 12.3088V12.0595C24.2323 11.56 23.8456 11.3488 23.2246 11.3488C22.6036 11.3488 22.2098 11.5394 22.1194 11.8509C22.112 11.8728 22.0964 11.892 22.0751 11.9054C22.0538 11.9189 22.0279 11.9258 22.0016 11.9251H21.0379C21.0202 11.9255 21.0025 11.9225 20.9863 11.9164C20.97 11.9102 20.9555 11.901 20.9438 11.8895C20.9321 11.8779 20.9235 11.8643 20.9186 11.8495C20.9137 11.8348 20.9126 11.8192 20.9154 11.8041C21.0581 11.0656 21.7678 10.5042 23.2686 10.5042C24.8652 10.5042 25.4416 11.148 25.4416 12.3767V14.9857C25.4413 15.0141 25.428 15.0413 25.4046 15.0613C25.3812 15.0813 25.3496 15.0924 25.3167 15.0923H24.3453C24.3128 15.0922 24.2816 15.0811 24.2585 15.0614C24.2471 15.0515 24.2381 15.0398 24.232 15.0269C24.2259 15.014 24.2227 15.0001 24.2228 14.9862V14.791C24.2231 14.7749 24.2178 14.759 24.2076 14.7456C24.1973 14.7321 24.1826 14.7216 24.1653 14.7156C24.1481 14.7095 24.1291 14.7081 24.1109 14.7115C24.0927 14.715 24.0761 14.7231 24.0634 14.7349C23.7719 15.0094 23.3013 15.2076 22.5477 15.2076C21.4389 15.2076 20.7072 14.7081 20.7072 13.8445ZM24.2323 13.279V13.0766L22.9688 13.1343C22.3032 13.1636 21.9159 13.4031 21.9159 13.8063C21.9159 14.171 22.2711 14.3728 22.8915 14.3728C23.7344 14.3728 24.2323 13.9789 24.2323 13.279ZM26.4172 17.0637V16.3077C26.4174 16.2918 26.4216 16.2762 26.4295 16.2619C26.4375 16.2476 26.449 16.235 26.4631 16.225C26.4773 16.215 26.4939 16.2078 26.5117 16.2039C26.5294 16.2 26.5479 16.1996 26.5659 16.2026C26.7146 16.2268 26.8663 16.2392 27.018 16.2397C27.2788 16.2507 27.5363 16.1856 27.7493 16.0549C27.9623 15.9242 28.1185 15.7354 28.1929 15.5187L28.2559 15.3446C28.2651 15.3212 28.2651 15.2959 28.2559 15.2725L26.2316 10.7715C26.2243 10.7552 26.2217 10.7376 26.2239 10.7202C26.2262 10.7028 26.2333 10.6861 26.2447 10.6716C26.256 10.6572 26.2713 10.6453 26.2891 10.637C26.3069 10.6288 26.3268 10.6244 26.347 10.6242H27.3285C27.3536 10.6244 27.378 10.6312 27.3986 10.6436C27.4192 10.656 27.435 10.6735 27.4439 10.6937L28.8186 13.8681C28.8273 13.8892 28.8432 13.9075 28.8643 13.9204C28.8854 13.9333 28.9106 13.9403 28.9364 13.9403C28.9623 13.9403 28.9875 13.9333 29.0086 13.9204C29.0296 13.9075 29.0456 13.8892 29.0542 13.8681L30.2481 10.7025C30.2564 10.6809 30.2723 10.662 30.2937 10.6487C30.315 10.6354 30.3407 10.6283 30.3671 10.6283H31.3825C31.4028 10.6284 31.4228 10.6328 31.4408 10.6411C31.4588 10.6493 31.4742 10.6612 31.4857 10.6757C31.4972 10.6902 31.5045 10.707 31.5069 10.7244C31.5093 10.7419 31.5069 10.7597 31.4997 10.7761L29.3344 15.7746C28.8359 16.9365 27.9811 17.2336 27.04 17.2336C26.8616 17.2377 26.6831 17.2192 26.5106 17.1785C26.4819 17.1719 26.4568 17.1568 26.4397 17.1358C26.4227 17.1148 26.4147 17.0893 26.4172 17.0637Z" fill="#5A31F4"/>
<path d="M8.31244 8.00011C7.02284 7.99216 5.77875 8.41236 4.83609 9.17429C4.79578 9.20625 4.77065 9.25006 4.76559 9.29718C4.76054 9.3443 4.77591 9.39137 4.80873 9.42921L5.39229 10.1193C5.4112 10.1423 5.43571 10.1614 5.46407 10.1753C5.49244 10.1892 5.52397 10.1975 5.55647 10.1997C5.58896 10.2019 5.62161 10.198 5.65214 10.1881C5.68266 10.1782 5.71031 10.1626 5.73314 10.1425C6.07209 9.8491 6.47519 9.61716 6.91887 9.46021C7.36256 9.30326 7.83792 9.22444 8.31719 9.22837C10.3183 9.22837 11.3635 10.5323 11.3635 11.8198C11.3635 13.2196 10.2654 14.2042 8.6872 14.2238C7.46774 14.2238 6.54869 13.5239 6.54869 12.5995C6.54996 12.366 6.61107 12.1356 6.72762 11.925C6.84416 11.7144 7.01324 11.5288 7.22266 11.3815C7.26693 11.3495 7.29491 11.3037 7.30059 11.254C7.30626 11.2043 7.28917 11.1547 7.253 11.1158L6.6397 10.4453C6.62115 10.425 6.5981 10.4082 6.57191 10.3957C6.54571 10.3833 6.5169 10.3755 6.48718 10.3729C6.45746 10.3702 6.42743 10.3728 6.39887 10.3803C6.3703 10.3879 6.34377 10.4004 6.32086 10.417C5.9442 10.6797 5.64025 11.0121 5.4313 11.3897C5.22235 11.7674 5.11369 12.1807 5.1133 12.5995C5.1133 14.1908 6.67539 15.4392 8.67649 15.4495H8.70326C11.0791 15.4227 12.7971 13.8993 12.7971 11.8172C12.7971 9.96841 11.2237 8.00011 8.31244 8.00011Z" fill="#5A31F4"/>
</svg>
